<svg xmlns="http://www.w3.org/2000/svg" xmlns:xlink="http://www.w3.org/1999/xlink" width="2249.023" height="1432.33" viewBox="0 0 2249.023 1432.33"><defs><linearGradient id="a" x1="0.093" y1="-0.001" x2="0.876" y2="0.009" gradientUnits="objectBoundingBox"><stop offset="0" stop-color="#0a5b00"/><stop offset="1" stop-color="#164910"/></linearGradient><linearGradient id="b" x1="0.093" y1="-0.001" x2="0.876" y2="0.009" gradientUnits="objectBoundingBox"><stop offset="0" stop-color="#0a5b00"/><stop offset="1" stop-color="#1e6d15"/></linearGradient><linearGradient id="c" x1="0.093" y1="-0.001" x2="0.876" y2="0.009" gradientUnits="objectBoundingBox"><stop offset="0" stop-color="#157a08"/><stop offset="1" stop-color="#0d5104"/></linearGradient></defs><g transform="translate(16.791 -231.116)"><g transform="translate(211 458)"><rect width="960" height="187" rx="93.5" transform="matrix(0.966, -0.259, 0.259, 0.966, 293.877, 83.871)" fill="url(#a)"/><rect width="2190" height="251" rx="107" transform="matrix(0.966, -0.259, 0.259, 0.966, -163.78, 740.738)" fill="url(#b)"/><rect width="2267" height="229" rx="114.5" transform="matrix(0.966, -0.259, 0.259, 0.966, -227.791, 567.334)" fill="url(#c)"/><g transform="translate(1521.907 -503.766)"><path d="M158.181,0,316.363,204.545H0Z" transform="matrix(0.966, -0.259, 0.259, 0.966, 125.908, 830.572)" fill="#d0df4c"/><path d="M33.409,0,66.818,255H0Z" transform="matrix(0.966, 0.259, -0.259, 0.966, 245.186, 780.305)" fill="#7f882a"/></g><rect width="1247" height="226" rx="113" transform="matrix(0.966, -0.259, 0.259, 0.966, 729.115, 320.147)" fill="#338827"/><rect width="808" height="183" rx="91.5" transform="matrix(0.966, -0.259, 0.259, 0.966, -160.563, 208.657)" fill="#1a6510"/><rect width="832" height="226" rx="113" transform="matrix(0.966, -0.259, 0.259, 0.966, -198.635, -11.547)" fill="#338827"/><g transform="matrix(0.966, -0.259, 0.259, 0.966, -138.091, 384.603)" fill="#fff" stroke="#fff" stroke-width="1"><rect width="863" height="157" rx="78.5" stroke="none"/><rect x="0.5" y="0.5" width="862" height="156" rx="78" fill="none"/></g><rect width="1524" height="187" rx="93.5" transform="matrix(0.966, -0.259, 0.259, 0.966, 387.209, 228.818)" fill="url(#a)"/><g transform="translate(435 235)" fill="#fff" stroke="#fff" stroke-width="1"><circle cx="61" cy="61" r="61" stroke="none"/><circle cx="61" cy="61" r="60.5" fill="none"/></g><g transform="translate(-5 10)"><path d="M84.9,0l84.9,109.785H0Z" transform="matrix(0.966, -0.259, 0.259, 0.966, 125.908, 792.639)" fill="#d0df4c"/><path d="M17.932,0,35.863,136.866H0Z" transform="matrix(0.966, 0.259, -0.259, 0.966, 189.928, 765.659)" fill="#7f882a"/></g><rect width="2190" height="206" rx="103" transform="matrix(0.966, -0.259, 0.259, 0.966, -177.78, 999.738)" fill="url(#a)"/><rect width="1599" height="208" rx="104" transform="matrix(0.966, -0.259, 0.259, 0.966, -177.917, 997.776)" fill="#3f9235"/><g transform="matrix(0.966, -0.259, 0.259, 0.966, -184.048, 993.908)" fill="#fff" stroke="#fff" stroke-width="1"><rect width="1011" height="219" rx="109.5" stroke="none"/><rect x="0.5" y="0.5" width="1010" height="218" rx="109" fill="none"/></g><circle cx="64" cy="64" r="64" transform="translate(656 802)" fill="#3f9235"/><circle cx="67.5" cy="67.5" r="67.5" transform="translate(791 333)" fill="#116406"/><g transform="translate(-14 -177)"><line x1="485" y2="130" transform="translate(866.5 885.5)" fill="none" stroke="#fff" stroke-width="3"/><line x1="54" y2="77" transform="translate(1205.5 840.5)" fill="none" stroke="#fff" stroke-width="3"/><line x1="101" y1="15" transform="translate(1213.5 933.5)" fill="none" stroke="#fff" stroke-width="3"/></g><g transform="translate(1530 401)" fill="#fff" stroke="#fff" stroke-width="1"><circle cx="117.5" cy="117.5" r="117.5" stroke="none"/><circle cx="117.5" cy="117.5" r="117" fill="none"/></g><g transform="matrix(0.966, -0.259, 0.259, 0.966, -666.639, 407.379)"><g transform="translate(1381 184)" fill="#fff" stroke="#fff" stroke-width="1"><circle cx="18.259" cy="18.259" r="18.259" stroke="none"/><circle cx="18.259" cy="18.259" r="17.759" fill="none"/></g><g transform="translate(1440.432 187.58)" fill="#fff" stroke="#fff" stroke-width="1"><circle cx="14.679" cy="14.679" r="14.679" stroke="none"/><circle cx="14.679" cy="14.679" r="14.179" fill="none"/></g><g transform="translate(1492.704 191.161)" fill="#fff" stroke="#fff" stroke-width="1"><circle cx="11.099" cy="11.099" r="11.099" stroke="none"/><circle cx="11.099" cy="11.099" r="10.599" fill="none"/></g></g></g><g transform="translate(179 453)"><line x1="420.337" y2="131.129" transform="translate(392.95 456.801) rotate(-178)" fill="none" stroke="#0b5a02" stroke-width="3"/><path d="M32,0,3.5,67.688,0,76" transform="translate(115.39 488.455) rotate(-178)" fill="none" stroke="#0b5a02" stroke-width="3"/><line x1="87" y1="23" transform="translate(116.795 398.133) rotate(-178)" fill="none" stroke="#0b5a02" stroke-width="3"/></g></g></svg>